#!OML:ASF H:\ManfredETheater\Project 1\Capture day 1\Session 1\subject.ASF
:FULLY-SPECIFIED
:DEGREES
93
root 1.70127 17.1563 34.1569 -175.449 -4.33299 178.829
lowerback -0.942589 -0.980804 -2.99975
upperback -4.31081 -1.5066 1.26536
thorax -3.80865 -0.705936 3.02768
lowerneck -19.404 -1.0786 -2.75808
upperneck 24.3603 -1.74454 1.59521
head 11.1481 -1.10507 0.729835
rclavicle 6.78353e-015 2.38542e-015
rhumerus -37.8837 -8.86552 -79.991
rradius 27.9021
rwrist 4.50526
rhand -18.7429 -11.1355
rfingers 7.12502
rthumb 7.55331 -40.9807
lclavicle 6.78353e-015 2.38542e-015
lhumerus -32.907 5.06164 89.0795
lradius 26.9883
lwrist -17.49
lhand -10.1701 10.0077
lfingers 7.12502
lthumb 15.8199 39.3814
rfemur -12.7836 -0.169023 16.3554
rtibia 33.5591
rfoot -21.4691 -13.3491
rtoes 6.15279
lfemur -15.4497 -4.61216 -18.8744
ltibia 35.4492
lfoot -21.1939 2.554
ltoes 0.201845
94
root 1.70113 17.1552 34.1576 -175.454 -4.32354 178.822
lowerback -0.930579 -0.979962 -2.99992
upperback -4.30015 -1.50464 1.2645
thorax -3.80448 -0.704718 3.02691
lowerneck -19.4243 -1.07341 -2.74584
upperneck 24.3755 -1.73831 1.58526
head 11.1574 -1.10243 0.724983
rclavicle -1.6847e-014 9.54166e-015
rhumerus -37.8688 -8.86537 -80.0075
rradius 27.9205
rwrist 4.48337
rhand -18.7374 -11.1094
rfingers 7.12502
rthumb 7.55862 -40.9544
lclavicle -1.6847e-014 9.54166e-015
lhumerus -32.9108 5.08018 89.0657
lradius 26.9713
lwrist -17.5018
lhand -10.1727 10.0085
lfingers 7.12502
lthumb 15.8173 39.3823
rfemur -12.7849 -0.191723 16.346
rtibia 33.5702
rfoot -21.4743 -13.3313
rtoes 6.1231
lfemur -15.454 -4.60721 -18.883
ltibia 35.4672
lfoot -21.2073 2.55659
ltoes 0.209481
95
root 1.70103 17.154 34.1582 -175.46 -4.31757 178.815
lowerback -0.914138 -0.981044 -2.9999
upperback -4.2888 -1.50522 1.26416
thorax -3.80188 -0.704684 3.02672
lowerneck -19.4403 -1.06762 -2.73543
upperneck 24.3856 -1.73098 1.5774
head 11.1639 -1.0991 0.721402
rclavicle -7.45443e-017 -3.49861e-014
rhumerus -37.853 -8.85743 -80.0285
rradius 27.9436
rwrist 4.45565
rhand -18.7383 -11.1235
rfingers 7.12502
rthumb 7.55776 -40.9685
lclavicle -7.45443e-017 -3.49861e-014
lhumerus -32.9173 5.09908 89.049
lradius 26.9554
lwrist -17.5129
lhand -10.1777 10.0102
lfingers 7.12502
lthumb 15.8125 39.3844
rfemur -12.7833 -0.219641 16.3369
rtibia 33.5834
rfoot -21.4806 -13.3124
rtoes 6.08892
lfemur -15.4564 -4.60228 -18.8913
ltibia 35.4879
lfoot -21.2258 2.55625
ltoes 0.231407
96
root 1.70096 17.1526 34.1588 -175.47 -4.31353 178.809
lowerback -0.892199 -0.983756 -3.00077
upperback -4.27728 -1.50799 1.26567
thorax -3.80199 -0.705588 3.02912
lowerneck -19.4516 -1.06115 -2.7272
upperneck 24.3906 -1.72187 1.56969
head 11.1676 -1.09507 0.718558
rclavicle 2.5842e-015 -2.38542e-014
rhumerus -37.8369 -8.83972 -80.052
rradius 27.97
rwrist 4.42283
rhand -18.7426 -11.1572
rfingers 7.12502
rthumb 7.5536 -41.0023
lclavicle 2.5842e-015 -2.38542e-014
lhumerus -32.9272 5.1198 89.0314
lradius 26.941
lwrist -17.5238
lhand -10.1823 10.0168
lfingers 7.12502
lthumb 15.8081 39.3913
rfemur -12.7803 -0.250279 16.3285
rtibia 33.5999
rfoot -21.4883 -13.2932
rtoes 6.05106
lfemur -15.4575 -4.59506 -18.8988
ltibia 35.5112
lfoot -21.2483 2.55462
ltoes 0.255928
97
root 1.70088 17.151 34.1596 -175.48 -4.31105 178.803
lowerback -0.872177 -0.988097 -2.99971
upperback -4.26391 -1.51273 1.26742
thorax -3.79898 -0.707573 3.03064
lowerneck -19.4533 -1.054 -2.72368
upperneck 24.3858 -1.71146 1.56731
head 11.1658 -1.09006 0.718719
rclavicle -9.29318e-015 1.19271e-015
rhumerus -37.8193 -8.81475 -80.0799
rradius 28.0004
rwrist 4.38816
rhand -18.7513 -11.2073
rfingers 7.12502
rthumb 7.54519 -41.0528
lclavicle -9.29318e-015 1.19271e-015
lhumerus -32.9375 5.14328 89.0102
lradius 26.9276
lwrist -17.5351
lhand -10.1844 10.0237
lfingers 7.12502
lthumb 15.8061 39.3984
rfemur -12.7793 -0.284489 16.3201
rtibia 33.621
rfoot -21.4981 -13.2699
rtoes 6.01633
lfemur -15.4596 -4.58777 -18.9057
ltibia 35.538
lfoot -21.2765 2.55124
ltoes 0.297633
98
root 1.70081 17.1491 34.1604 -175.49 -4.31075 178.797
lowerback -0.851058 -0.994055 -2.99809
upperback -4.24954 -1.51951 1.27036
thorax -3.79536 -0.710565 3.03313
lowerneck -19.4476 -1.04679 -2.72223
upperneck 24.3726 -1.70003 1.56515
head 11.1594 -1.08461 0.719527
rclavicle 7.77745e-015 2.70347e-014
rhumerus -37.8003 -8.78317 -80.1095
rradius 28.0313
rwrist 4.35257
rhand -18.7613 -11.2629
rfingers 7.12502
rthumb 7.53556 -41.1087
lclavicle 7.77745e-015 2.70347e-014
lhumerus -32.9492 5.17026 88.9868
lradius 26.915
lwrist -17.5472
lhand -10.1846 10.0289
lfingers 7.12502
lthumb 15.8059 39.4037
rfemur -12.7803 -0.321825 16.3118
rtibia 33.648
rfoot -21.5117 -13.2428
rtoes 5.98493
lfemur -15.4628 -4.58061 -18.9118
ltibia 35.5693
lfoot -21.31 2.54714
ltoes 0.343727
99
root 1.70076 17.1471 34.1614 -175.5 -4.30888 178.793
lowerback -0.828628 -0.998139 -2.9934
upperback -4.23059 -1.52338 1.27209
thorax -3.78802 -0.712194 3.03251
lowerneck -19.4532 -1.04205 -2.72165
upperneck 24.3559 -1.69118 1.56608
head 11.154 -1.07949 0.72124
rclavicle 2.67862e-014 9.14409e-015
rhumerus -37.772 -8.75641 -80.1406
rradius 28.0615
rwrist 4.32053
rhand -18.7699 -11.3042
rfingers 7.12502
rthumb 7.52726 -41.1503
lclavicle 2.67862e-014 9.14409e-015
lhumerus -32.9504 5.19141 88.9629
lradius 26.902
lwrist -17.5581
lhand -10.1781 10.0377
lfingers 7.12502
lthumb 15.8122 39.4119
rfemur -12.7876 -0.360204 16.3039
rtibia 33.6818
rfoot -21.5285 -13.211
rtoes 5.96011
lfemur -15.4707 -4.57072 -18.9166
ltibia 35.6064
lfoot -21.3472 2.54239
ltoes 0.388687
100
root 1.70065 17.1448 34.1625 -175.509 -4.30563 178.79
lowerback -0.80462 -1.00148 -2.9858
upperback -4.21223 -1.5263 1.27431
thorax -3.7823 -0.713415 3.03081
lowerneck -19.4482 -1.03783 -2.72281
upperneck 24.3297 -1.68274 1.56835
head 11.143 -1.07445 0.723736
rclavicle 2.16178e-015 1.59028e-015
rhumerus -37.7456 -8.72671 -80.1717
rradius 28.0927
rwrist 4.29005
rhand -18.7776 -11.3376
rfingers 7.12502
rthumb 7.5198 -41.1839
lclavicle 2.16178e-015 1.59028e-015
lhumerus -32.9543 5.21329 88.9374
lradius 26.8896
lwrist -17.5711
lhand -10.1689 10.0478
lfingers 7.12502
lthumb 15.821 39.4213
rfemur -12.8009 -0.399705 16.2966
rtibia 33.7227
rfoot -21.5495 -13.173
rtoes 5.94355
lfemur -15.4839 -4.55996 -18.9203
ltibia 35.6506
lfoot -21.3871 2.53896
ltoes 0.427393
101
root 1.70049 17.1424 34.1638 -175.519 -4.30582 178.791
lowerback -0.775828 -1.00317 -2.97212
upperback -4.19183 -1.52682 1.27565
thorax -3.77746 -0.713569 3.0248
lowerneck -19.4461 -1.03654 -2.72119
upperneck 24.2989 -1.67807 1.56907
head 11.1309 -1.07073 0.724662
rclavicle -1.70209e-014 -5.96354e-015
rhumerus -37.7176 -8.70367 -80.2016
rradius 28.1254
rwrist 4.26252
rhand -18.7792 -11.3591
rfingers 7.12502
rthumb 7.5183 -41.2055
lclavicle -1.70209e-014 -5.96354e-015
lhumerus -32.9538 5.22659 88.9124
lradius 26.8767
lwrist -17.5819
lhand -10.156 10.057
lfingers 7.12502
lthumb 15.8334 39.4296
rfemur -12.8164 -0.442064 16.2927
rtibia 33.7696
rfoot -21.5742 -13.1324
rtoes 5.93166
lfemur -15.5025 -4.55148 -18.9201
ltibia 35.7039
lfoot -21.4279 2.53396
ltoes 0.455487
102
root 1.70027 17.1397 34.1652 -175.528 -4.30609 178.795
lowerback -0.739485 -1.00325 -2.95527
upperback -4.17187 -1.52524 1.27797
thorax -3.77755 -0.712632 3.01818
lowerneck -19.4458 -1.0368 -2.71986
upperneck 24.2654 -1.67487 1.56939
head 11.1182 -1.06758 0.725279
rclavicle 1.54058e-015 9.93923e-015
rhumerus -37.6906 -8.67946 -80.2301
rradius 28.1611
rwrist 4.23385
rhand -18.7775 -11.3722
rfingers 7.12502
rthumb 7.51994 -41.2185
lclavicle 1.54058e-015 9.93923e-015
lhumerus -32.9533 5.23729 88.8885
lradius 26.8645
lwrist -17.5928
lhand -10.1438 10.0656
lfingers 7.12502
lthumb 15.8452 39.4372
rfemur -12.8361 -0.485922 16.2913
rtibia 33.8212
rfoot -21.6006 -13.0889
rtoes 5.92109
lfemur -15.5284 -4.54327 -18.9173
ltibia 35.7669
lfoot -21.4674 2.52806
ltoes 0.465429
103
root 1.69998 17.1369 34.1667 -175.539 -4.30924 178.806
lowerback -0.692922 -1.00186 -2.92833
upperback -4.15315 -1.52175 1.28184
thorax -3.78502 -0.710883 3.00772
lowerneck -19.4478 -1.0388 -2.71501
upperneck 24.231 -1.6738 1.56551
head 11.1057 -1.06549 0.723461
rclavicle -2.47984e-014 5.96354e-015
rhumerus -37.6672 -8.65417 -80.2584
rradius 28.2002
rwrist 4.20255
rhand -18.7764 -11.3861
rfingers 7.12502
rthumb 7.521 -41.2324
lclavicle -2.47984e-014 5.96354e-015
lhumerus -32.954 5.24389 88.8649
lradius 26.8519
lwrist -17.603
lhand -10.1282 10.0737
lfingers 7.12502
lthumb 15.8602 39.4441
rfemur -12.8563 -0.529447 16.2991
rtibia 33.8751
rfoot -21.6266 -13.0476
rtoes 5.90965
lfemur -15.5615 -4.53478 -18.9055
ltibia 35.8406
lfoot -21.5054 2.5178
ltoes 0.468728
104
root 1.6996 17.1341 34.1682 -175.554 -4.31705 178.824
lowerback -0.631953 -1.00167 -2.89733
upperback -4.13875 -1.52026 1.28968
thorax -3.80498 -0.709964 2.99959
lowerneck -19.4402 -1.0404 -2.71169
upperneck 24.1948 -1.67139 1.55817
head 11.0905 -1.06359 0.720857
rclavicle -8.99501e-015 8.34896e-015
rhumerus -37.6527 -8.61807 -80.2843
rradius 28.2428
rwrist 4.16783
rhand -18.772 -11.3982
rfingers 7.12502
rthumb 7.52525 -41.2443
lclavicle -8.99501e-015 8.34896e-015
lhumerus -32.9652 5.25355 88.8428
lradius 26.8414
lwrist -17.6125
lhand -10.1173 10.083
lfingers 7.12502
lthumb 15.8707 39.4526
rfemur -12.873 -0.571996 16.3134
rtibia 33.9295
rfoot -21.6516 -13.0118
rtoes 5.89745
lfemur -15.5985 -4.52854 -18.8883
ltibia 35.9238
lfoot -21.5407 2.50458
ltoes 0.456857
105
root 1.69915 17.1311 34.1697 -175.572 -4.33028 178.848
lowerback -0.557111 -1.0011 -2.85851
upperback -4.12302 -1.51808 1.29934
thorax -3.83157 -0.7087 2.98925
lowerneck -19.448 -1.04436 -2.70698
upperneck 24.1633 -1.67098 1.5476
head 11.0801 -1.06261 0.716504
rclavicle -2.80783e-015 0
rhumerus -37.6368 -8.57956 -80.3103
rradius 28.2877
rwrist 4.12991
rhand -18.7707 -11.4184
rfingers 7.12502
rthumb 7.52651 -41.2645
lclavicle -2.80783e-015 0
lhumerus -32.9723 5.26145 88.8227
lradius 26.829
lwrist -17.6213
lhand -10.1124 10.0893
lfingers 7.12502
lthumb 15.8754 39.4586
rfemur -12.8842 -0.613077 16.3357
rtibia 33.9815
rfoot -21.6751 -12.982
rtoes 5.87818
lfemur -15.6384 -4.52403 -18.864
ltibia 36.0154
lfoot -21.5751 2.48631
ltoes 0.444761
